<svg width="22" height="22" viewBox="0 0 22 22" fill="none" xmlns="http://www.w3.org/2000/svg">
<g clip-path="url(#clip0_4_36)">
<path d="M7.68325 17.0758C7.68325 17.1617 7.58586 17.2305 7.46306 17.2305C7.32332 17.2434 7.22593 17.1746 7.22593 17.0758C7.22593 16.9898 7.32332 16.9211 7.44612 16.9211C7.57316 16.9082 7.68325 16.977 7.68325 17.0758ZM6.36633 16.8824C6.33669 16.9684 6.42138 17.0672 6.54842 17.093C6.65851 17.1359 6.78555 17.093 6.81095 17.007C6.83636 16.9211 6.7559 16.8223 6.62887 16.7836C6.51877 16.7535 6.39597 16.7965 6.36633 16.8824ZM8.23797 16.8094C8.11517 16.8395 8.03048 16.9211 8.04318 17.0199C8.05589 17.1059 8.16598 17.1617 8.29302 17.1316C8.41582 17.1016 8.50051 17.0199 8.4878 16.934C8.4751 16.8523 8.36077 16.7965 8.23797 16.8094ZM11.0243 0.34375C5.15104 0.34375 0.658264 4.86836 0.658264 10.8281C0.658264 15.5934 3.61393 19.6711 7.83569 21.1063C8.37771 21.2051 8.56826 20.8656 8.56826 20.5863C8.56826 20.3199 8.55555 18.8504 8.55555 17.948C8.55555 17.948 5.59142 18.5926 4.96896 16.6676C4.96896 16.6676 4.48623 15.4172 3.79177 15.0949C3.79177 15.0949 2.82208 14.4203 3.85953 14.4332C3.85953 14.4332 4.91391 14.5191 5.49403 15.5418C6.42138 17.2004 7.97543 16.7234 8.58096 16.4398C8.67835 15.7523 8.9536 15.2754 9.25848 14.9918C6.89141 14.7254 4.50317 14.3773 4.50317 10.2437C4.50317 9.06211 4.82498 8.46914 5.5025 7.71289C5.3924 7.43359 5.03247 6.28203 5.6126 4.79531C6.4976 4.51602 8.53438 5.95547 8.53438 5.95547C9.38128 5.71484 10.2917 5.59023 11.1936 5.59023C12.0956 5.59023 13.006 5.71484 13.8529 5.95547C13.8529 5.95547 15.8897 4.51172 16.7747 4.79531C17.3548 6.28633 16.9949 7.43359 16.8848 7.71289C17.5623 8.47344 17.9773 9.06641 17.9773 10.2437C17.9773 14.3902 15.4832 14.7211 13.1161 14.9918C13.5057 15.3312 13.8359 15.9758 13.8359 16.9855C13.8359 18.4336 13.8232 20.2254 13.8232 20.5777C13.8232 20.857 14.018 21.1965 14.5558 21.0977C18.7903 19.6711 21.6612 15.5934 21.6612 10.8281C21.6612 4.86836 16.8975 0.34375 11.0243 0.34375ZM4.77417 15.1637C4.71912 15.2066 4.73183 15.3055 4.80381 15.3871C4.87156 15.4559 4.96896 15.4859 5.02401 15.4301C5.07905 15.3871 5.06635 15.2883 4.99436 15.2066C4.92661 15.1379 4.82922 15.1078 4.77417 15.1637ZM4.31685 14.8156C4.28721 14.8715 4.32955 14.9402 4.41424 14.9832C4.48199 15.0262 4.56668 15.0133 4.59632 14.9531C4.62596 14.8973 4.58362 14.8285 4.49893 14.7855C4.41424 14.7598 4.34649 14.7727 4.31685 14.8156ZM5.68882 16.3453C5.62107 16.4012 5.64647 16.5301 5.74387 16.6117C5.84126 16.7105 5.96406 16.7234 6.01911 16.6547C6.07415 16.5988 6.04875 16.4699 5.96406 16.3883C5.8709 16.2895 5.74387 16.2766 5.68882 16.3453ZM5.20609 15.7137C5.13834 15.7566 5.13834 15.8684 5.20609 15.9672C5.27384 16.066 5.38817 16.109 5.44322 16.066C5.51097 16.0102 5.51097 15.8984 5.44322 15.7996C5.38394 15.7008 5.27384 15.6578 5.20609 15.7137Z" fill="white"/>
</g>
<defs>
<clipPath id="clip0_4_36">
<rect width="21.6805" height="22" fill="white" transform="translate(0.319519)"/>
</clipPath>
</defs>
</svg>
