<svg width="283" height="105" viewBox="0 0 283 105" fill="none" xmlns="http://www.w3.org/2000/svg">
<path fill-rule="evenodd" clip-rule="evenodd" d="M20 0C8.95431 0 0 8.9543 0 20V85C0 96.0457 8.9543 105 20 105H85C96.0457 105 105 96.0457 105 85V20C105 8.95431 96.0457 0 85 0H20ZM59.9409 42.2584L52.5 19.3575L45.0591 42.2584L20.9797 42.2584L40.4603 56.4119L33.0194 79.3128L52.5 65.1593L71.9807 79.3128L64.5397 56.4119L84.0204 42.2584L59.9409 42.2584Z" fill="url(#paint0_linear_15_416)"/>
<path d="M122.36 70V36.4H131.864V62.464H147.896V70H122.36ZM164.187 70.432C161.339 70.432 158.811 69.856 156.603 68.704C154.395 67.552 152.651 65.968 151.371 63.952C150.123 61.904 149.499 59.568 149.499 56.944C149.499 54.32 150.123 52 151.371 49.984C152.651 47.968 154.395 46.4 156.603 45.28C158.811 44.128 161.339 43.552 164.187 43.552C167.035 43.552 169.563 44.128 171.771 45.28C174.011 46.4 175.755 47.968 177.003 49.984C178.251 52 178.875 54.32 178.875 56.944C178.875 59.568 178.251 61.904 177.003 63.952C175.755 65.968 174.011 67.552 171.771 68.704C169.563 69.856 167.035 70.432 164.187 70.432ZM164.187 63.184C165.243 63.184 166.171 62.944 166.971 62.464C167.803 61.984 168.459 61.28 168.939 60.352C169.419 59.392 169.659 58.256 169.659 56.944C169.659 55.632 169.419 54.528 168.939 53.632C168.459 52.704 167.803 52 166.971 51.52C166.171 51.04 165.243 50.8 164.187 50.8C163.163 50.8 162.235 51.04 161.403 51.52C160.603 52 159.947 52.704 159.435 53.632C158.955 54.528 158.715 55.632 158.715 56.944C158.715 58.256 158.955 59.392 159.435 60.352C159.947 61.28 160.603 61.984 161.403 62.464C162.235 62.944 163.163 63.184 164.187 63.184ZM183.1 70V43.984H191.788V51.568L190.492 49.408C191.26 47.456 192.508 46 194.236 45.04C195.964 44.048 198.06 43.552 200.524 43.552V51.76C200.108 51.696 199.74 51.664 199.42 51.664C199.132 51.632 198.812 51.616 198.46 51.616C196.604 51.616 195.1 52.128 193.948 53.152C192.796 54.144 192.22 55.776 192.22 58.048V70H183.1ZM217.685 70.432C214.613 70.432 211.925 69.856 209.621 68.704C207.349 67.52 205.573 65.92 204.293 63.904C203.045 61.856 202.421 59.536 202.421 56.944C202.421 54.352 203.029 52.048 204.245 50.032C205.493 47.984 207.205 46.4 209.381 45.28C211.557 44.128 214.005 43.552 216.725 43.552C219.285 43.552 221.621 44.08 223.733 45.136C225.845 46.16 227.525 47.68 228.773 49.696C230.021 51.712 230.645 54.16 230.645 57.04C230.645 57.36 230.629 57.728 230.597 58.144C230.565 58.56 230.533 58.944 230.501 59.296H209.909V54.496H225.653L222.197 55.84C222.229 54.656 222.005 53.632 221.525 52.768C221.077 51.904 220.437 51.232 219.605 50.752C218.805 50.272 217.861 50.032 216.773 50.032C215.685 50.032 214.725 50.272 213.893 50.752C213.093 51.232 212.469 51.92 212.021 52.816C211.573 53.68 211.349 54.704 211.349 55.888V57.28C211.349 58.56 211.605 59.664 212.117 60.592C212.661 61.52 213.429 62.24 214.421 62.752C215.413 63.232 216.597 63.472 217.973 63.472C219.253 63.472 220.341 63.296 221.237 62.944C222.165 62.56 223.077 61.984 223.973 61.216L228.773 66.208C227.525 67.584 225.989 68.64 224.165 69.376C222.341 70.08 220.181 70.432 217.685 70.432ZM268.738 43.552C270.754 43.552 272.546 43.968 274.114 44.8C275.714 45.6 276.962 46.848 277.858 48.544C278.786 50.24 279.25 52.432 279.25 55.12V70H270.13V56.608C270.13 54.752 269.778 53.408 269.074 52.576C268.37 51.712 267.41 51.28 266.194 51.28C265.33 51.28 264.546 51.488 263.842 51.904C263.138 52.32 262.594 52.96 262.21 53.824C261.826 54.656 261.634 55.744 261.634 57.088V70H252.514V56.608C252.514 54.752 252.162 53.408 251.458 52.576C250.786 51.712 249.826 51.28 248.578 51.28C247.682 51.28 246.882 51.488 246.178 51.904C245.506 52.32 244.962 52.96 244.546 53.824C244.162 54.656 243.97 55.744 243.97 57.088V70H234.85V43.984H243.538V51.232L241.81 49.168C242.77 47.312 244.082 45.92 245.746 44.992C247.41 44.032 249.266 43.552 251.314 43.552C253.65 43.552 255.698 44.16 257.458 45.376C259.25 46.56 260.45 48.416 261.058 50.944L258.082 50.32C259.01 48.208 260.402 46.56 262.258 45.376C264.146 44.16 266.306 43.552 268.738 43.552Z" fill="white"/>
<defs>
<linearGradient id="paint0_linear_15_416" x1="100.601" y1="140.782" x2="3.61082e-06" y2="-26.6899" gradientUnits="userSpaceOnUse">
<stop stop-color="white"/>
<stop offset="1" stop-color="white"/>
</linearGradient>
</defs>
</svg>
