<svg width="22" height="22" viewBox="0 0 22 22" fill="none" xmlns="http://www.w3.org/2000/svg">
<g clip-path="url(#clip0_4_38)">
<path d="M18.7389 11.6187C18.4763 10.8023 17.5998 10.3683 16.791 10.6347L14.8686 11.2836L13.5855 7.41637L15.508 6.76754C16.3168 6.50114 16.7402 5.61598 16.4819 4.79528C16.2194 3.97887 15.3428 3.54489 14.5341 3.81129L12.6116 4.46012L11.9468 2.44059C11.6843 1.62419 10.8077 1.1902 9.99893 1.45661C9.19015 1.72301 8.7667 2.60817 9.025 3.42887L9.68981 5.4484L5.73482 6.78903L5.07001 4.7695C4.80747 3.95309 3.93093 3.51911 3.12215 3.78551C2.31336 4.05192 1.88992 4.93708 2.14822 5.75778L2.81303 7.77731L0.894816 8.42184C0.0860321 8.68825 -0.337415 9.5734 -0.0791123 10.3941C0.132611 11.0172 0.729672 11.4254 1.34367 11.4511C1.63161 11.4941 1.85181 11.3824 3.78696 10.7293L5.07001 14.5965L3.14756 15.2453C2.34301 15.5117 1.91532 16.4011 2.17363 17.2175C2.38535 17.8406 2.98241 18.2488 3.59641 18.2746C3.88435 18.3175 4.10455 18.2058 6.0397 17.5527L6.70451 19.5722C6.95435 20.2984 7.75043 20.8183 8.65237 20.5562C9.46115 20.2898 9.8846 19.4047 9.6263 18.584L8.96149 16.5644L12.925 15.2195L13.5898 17.239C13.8396 17.9652 14.6357 18.4851 15.5376 18.223C16.3464 17.9566 16.7699 17.0715 16.5115 16.2507L15.8467 14.2312L17.7692 13.5824C18.5737 13.3246 19.0014 12.4351 18.7389 11.6187V11.6187ZM7.97909 13.6468L6.69604 9.77106L10.6553 8.42614L11.9383 12.3019L7.97909 13.6468V13.6468Z" fill="white"/>
</g>
<defs>
<clipPath id="clip0_4_38">
<rect width="21.6805" height="22" fill="white" transform="translate(0.22406)"/>
</clipPath>
</defs>
</svg>
