<svg width="23" height="22" viewBox="0 0 23 22" fill="none" xmlns="http://www.w3.org/2000/svg">
<path d="M17.8783 4.17227C16.1041 2.36758 13.7412 1.375 11.2302 1.375C6.0472 1.375 1.82966 5.65469 1.82966 10.9141C1.82966 12.5941 2.26158 14.2355 3.08307 15.6836L1.74921 20.625L6.73318 19.2973C8.10515 20.0578 9.65073 20.4574 11.226 20.4574H11.2302C16.4089 20.4574 20.7196 16.1777 20.7196 10.9184C20.7196 8.37031 19.6526 5.97695 17.8783 4.17227V4.17227ZM11.2302 18.8504C9.82434 18.8504 8.44814 18.468 7.24979 17.7461L6.96608 17.5742L4.01041 18.3605L4.79803 15.4344L4.61171 15.1336C3.82833 13.8703 3.41759 12.4137 3.41759 10.9141C3.41759 6.54414 6.92373 2.98633 11.2344 2.98633C13.322 2.98633 15.2826 3.81133 16.7562 5.31094C18.2298 6.81055 19.1359 8.8 19.1317 10.9184C19.1317 15.2926 15.5366 18.8504 11.2302 18.8504V18.8504ZM15.5155 12.9121C15.2826 12.7918 14.1266 12.216 13.9106 12.1387C13.6947 12.057 13.538 12.0184 13.3813 12.259C13.2246 12.4996 12.7758 13.0324 12.636 13.1957C12.5005 13.3547 12.3608 13.3762 12.1279 13.2559C10.7475 12.5555 9.84128 12.0055 8.93087 10.4199C8.68951 9.99883 9.17224 10.0289 9.62109 9.11797C9.69731 8.95898 9.6592 8.82148 9.59992 8.70117C9.54064 8.58086 9.07061 7.40781 8.87582 6.93086C8.68527 6.4668 8.49049 6.53125 8.34651 6.52266C8.21101 6.51406 8.05434 6.51406 7.89766 6.51406C7.74098 6.51406 7.48692 6.57422 7.27096 6.81055C7.055 7.05117 6.44947 7.62695 6.44947 8.8C6.44947 9.97305 7.29213 11.1074 7.40646 11.2664C7.52503 11.4254 9.06214 13.8316 11.4207 14.8672C12.9113 15.5203 13.4956 15.5762 14.2409 15.4645C14.694 15.3957 15.6298 14.8887 15.8246 14.3301C16.0194 13.7715 16.0194 13.2945 15.9601 13.1957C15.905 13.0883 15.7484 13.0281 15.5155 12.9121Z" fill="white"/>
</svg>
