<svg width="20" height="20" viewBox="0 0 20 20" fill="none" xmlns="http://www.w3.org/2000/svg">
<path d="M18.5667 5.08622C18.3486 4.26503 17.7061 3.6183 16.8902 3.39882C15.4114 3 9.48149 3 9.48149 3C9.48149 3 3.55163 3 2.07278 3.39882C1.25691 3.61833 0.61434 4.26503 0.39625 5.08622C0 6.57465 0 9.68014 0 9.68014C0 9.68014 0 12.7856 0.39625 14.2741C0.61434 15.0952 1.25691 15.715 2.07278 15.9345C3.55163 16.3333 9.48149 16.3333 9.48149 16.3333C9.48149 16.3333 15.4114 16.3333 16.8902 15.9345C17.7061 15.715 18.3486 15.0952 18.5667 14.2741C18.963 12.7856 18.963 9.68014 18.963 9.68014C18.963 9.68014 18.963 6.57465 18.5667 5.08622ZM7.54208 12.4997V6.86059L12.4983 9.68021L7.54208 12.4997Z" fill="#2F80ED"/>
</svg>
